<svg width="146" height="24" viewBox="0 0 146 24" fill="none" xmlns="http://www.w3.org/2000/svg">
<path fill-rule="evenodd" clip-rule="evenodd" d="M85.6785 0.200428C85.7913 0.0729003 85.9534 -0.00012207 86.1236 -0.00012207H91.1485C91.2936 -0.00012207 91.4337 0.0529405 91.5423 0.149065C91.7881 0.366546 91.8111 0.742133 91.5936 0.987962L82.4014 11.3784L91.5057 21.6205C91.6024 21.7293 91.6558 21.8698 91.6558 22.0153C91.6558 22.3436 91.3897 22.6096 91.0615 22.6096H86.0253C85.8556 22.6096 85.694 22.5371 85.5812 22.4102L79.0895 15.1076L72.6024 22.41C72.4896 22.537 72.3279 22.6096 72.1581 22.6096H67.1232C66.9777 22.6096 66.8373 22.5563 66.7285 22.4596C66.4831 22.2416 66.4609 21.866 66.6789 21.6206L75.7779 11.3787L66.5567 0.988664C66.4602 0.87992 66.4069 0.73957 66.4069 0.594177C66.4069 0.265954 66.6729 -0.00012207 67.0012 -0.00012207H72.0337C72.2037 -0.00012207 72.3655 0.0726137 72.4783 0.199707L79.0895 7.64949L85.6785 0.200428ZM146 21.8668C146 21.7209 145.946 21.58 145.849 21.4711L139.58 14.4443C144.637 12.9815 145.106 8.97423 145.106 7.56063C145.106 2.97384 141.238 0.00988131 135.252 0.00988131L123.609 0.0097996C123.281 0.00979765 123.015 0.275873 123.015 0.604107L123.015 21.8668C123.015 22.195 123.281 22.4611 123.61 22.4611L127.327 22.4611C127.655 22.4611 127.921 22.195 127.921 21.8668L127.921 14.9877H133.672L140.163 22.2624C140.275 22.3888 140.437 22.4611 140.606 22.4611H145.406C145.734 22.4611 146 22.195 146 21.8668ZM113.454 0.609978V12.8921C113.454 16.2493 111.043 18.1748 106.672 18.1748C102.192 18.1748 99.9174 16.447 99.9174 12.8921V0.609978C99.9174 0.281756 99.6513 0.0156791 99.3231 0.0156791H95.5592C95.231 0.0156791 94.9649 0.281756 94.9649 0.609978V12.8921C94.9649 19.2053 99.5103 23.1273 106.672 23.1273C113.859 23.1273 118.407 19.1098 118.407 12.8921V0.609978C118.407 0.281756 118.141 0.0156791 117.812 0.0156791H114.049C113.72 0.0156791 113.454 0.281756 113.454 0.609978ZM47.4464 9.93442e-05C47.2277 9.93442e-05 47.0267 0.120194 46.9231 0.312759L35.3948 21.7339C35.2393 22.023 35.3475 22.3833 35.6365 22.5389C35.7231 22.5855 35.8198 22.6099 35.9181 22.6099H40.1927C40.4114 22.6099 40.6124 22.4898 40.7161 22.2972L43.3496 17.4041L55.9636 17.4045L58.5948 22.2971C58.6984 22.4897 58.8995 22.6099 59.1182 22.6099H63.392C63.7202 22.6099 63.9863 22.3438 63.9863 22.0156C63.9863 21.9173 63.9619 21.8206 63.9154 21.7341L52.3946 0.312901C52.291 0.120257 52.09 9.93442e-05 51.8712 9.93442e-05H47.4464ZM45.6601 13.1119L53.6547 13.1122L49.6591 5.68279L45.6601 13.1119ZM127.921 10.7119L127.935 4.28714H135.067C139.815 4.28714 140.184 6.79859 140.184 7.56809C140.184 8.56089 139.891 9.20129 139.204 9.70933C138.585 10.1668 137.365 10.7119 135.067 10.7119H127.921Z" fill="black"/>
<path d="M35.4826 0.260171L23.8314 21.8794C23.7016 22.1202 23.7916 22.4206 24.0324 22.5504C24.1046 22.5893 24.1853 22.6096 24.2673 22.6096H28.7834C28.9655 22.6096 29.1329 22.5097 29.2193 22.3494L40.8709 0.730088C41.0007 0.489311 40.9107 0.188928 40.6699 0.0591626C40.5977 0.0202493 40.517 -0.00012207 40.435 -0.00012207L35.9186 -0.00012207C35.7365 -0.00012207 35.569 0.0998431 35.4826 0.260171Z" fill="#FF5824"/>
<path d="M23.5964 0.260171L11.9451 21.8794C11.8154 22.1202 11.9054 22.4206 12.1461 22.5504C12.2183 22.5893 12.2991 22.6096 12.3811 22.6096H16.8971C17.0792 22.6096 17.2467 22.5097 17.3331 22.3494L28.9847 0.730088C29.1145 0.489311 29.0245 0.188928 28.7837 0.0591626C28.7115 0.0202493 28.6308 -0.00012207 28.5487 -0.00012207L24.0324 -0.00012207C23.8503 -0.00012207 23.6828 0.0998431 23.5964 0.260171Z" fill="#FF5824"/>
<path d="M11.7107 0.260293L0.0593779 21.8796C-0.0703847 22.1203 0.0196108 22.4207 0.260389 22.5505C0.33259 22.5894 0.413325 22.6098 0.495345 22.6098H5.01138C5.19351 22.6098 5.36094 22.5098 5.44734 22.3495L17.099 0.73021C17.2287 0.489434 17.1387 0.18905 16.8979 0.0592847C16.8257 0.0203714 16.745 0 16.663 0L12.1466 0C11.9645 0 11.7971 0.0999652 11.7107 0.260293Z" fill="#FF5824"/>
</svg>
